<svg xmlns="http://www.w3.org/2000/svg" width="1120" height="260" viewBox="0 0 1120 260" role="img" aria-labelledby="title desc">
  <title id="title">basd-coding-dispatch flow diagram</title>
  <desc id="desc">Telegram or mobile request moves through Hermes or OpenClaw, worker routing, gates, implementation, review, verification, and report.</desc>
  <rect width="1120" height="260" fill="#F8FAFC"/>
  <g font-family="Arial, sans-serif" font-size="18" fill="#111827">
    <g fill="#FFFFFF" stroke="#111827" stroke-width="2">
      <rect x="24" y="90" width="124" height="70" rx="8"/>
      <rect x="180" y="90" width="132" height="70" rx="8"/>
      <rect x="344" y="90" width="132" height="70" rx="8"/>
      <rect x="508" y="90" width="106" height="70" rx="8"/>
      <rect x="646" y="90" width="160" height="70" rx="8"/>
      <rect x="838" y="90" width="118" height="70" rx="8"/>
      <rect x="988" y="90" width="108" height="70" rx="8"/>
    </g>
    <text x="86" y="120" text-anchor="middle">Telegram</text>
    <text x="86" y="143" text-anchor="middle">mobile</text>
    <text x="246" y="120" text-anchor="middle">Hermes</text>
    <text x="246" y="143" text-anchor="middle">OpenClaw</text>
    <text x="410" y="120" text-anchor="middle">route</text>
    <text x="410" y="143" text-anchor="middle">worker</text>
    <text x="561" y="132" text-anchor="middle">spec</text>
    <text x="726" y="120" text-anchor="middle">implementation</text>
    <text x="726" y="143" text-anchor="middle">plan</text>
    <text x="897" y="132" text-anchor="middle">build</text>
    <text x="1042" y="132" text-anchor="middle">report</text>
  </g>
  <g stroke="#111827" stroke-width="3" fill="none" stroke-linecap="round" stroke-linejoin="round">
    <path d="M148 125h30"/>
    <path d="M312 125h30"/>
    <path d="M476 125h30"/>
    <path d="M614 125h30"/>
    <path d="M806 125h30"/>
    <path d="M956 125h30"/>
    <path d="M170 117l10 8-10 8"/>
    <path d="M334 117l10 8-10 8"/>
    <path d="M498 117l10 8-10 8"/>
    <path d="M636 117l10 8-10 8"/>
    <path d="M828 117l10 8-10 8"/>
    <path d="M978 117l10 8-10 8"/>
  </g>
  <g font-family="Arial, sans-serif" font-size="15" fill="#334155">
    <text x="410" y="188" text-anchor="middle">Codex / Claude / validated backends</text>
    <text x="897" y="188" text-anchor="middle">review + verification</text>
  </g>
</svg>
